<?xml version="1.0" encoding="utf-8" ?>
<svg baseProfile="full" fill="#101010" height="600.0" version="1.1" width="800.0" xmlns="http://www.w3.org/2000/svg" xmlns:ev="http://www.w3.org/2001/xml-events" xmlns:xlink="http://www.w3.org/1999/xlink"><defs /><rect fill="#fff" height="100%" width="100%" x="0" y="0" /><line stroke="#ddd" stroke-width="2" x1="70.0" x2="250.0" y1="550.0" y2="550.0" /><text fill="#ddd" font-family="Montserrat" font-weight="600" letter-spacing="1" text-anchor="start" x="70.0" y="496.57142857142856">1</text><line stroke="#ddd" stroke-width="2" x1="70.0" x2="250.0" y1="478.57142857142856" y2="478.57142857142856" /><text fill="#ddd" font-family="Montserrat" font-weight="600" letter-spacing="1" text-anchor="start" x="70.0" y="425.14285714285717">2</text><line stroke="#ddd" stroke-width="2" x1="70.0" x2="250.0" y1="407.14285714285717" y2="407.14285714285717" /><text fill="#ddd" font-family="Montserrat" font-weight="600" letter-spacing="1" text-anchor="start" x="70.0" y="353.7142857142857">3</text><line stroke="#ddd" stroke-width="2" x1="70.0" x2="250.0" y1="335.7142857142857" y2="335.7142857142857" /><text fill="#ddd" font-family="Montserrat" font-weight="600" letter-spacing="1" text-anchor="start" x="70.0" y="282.2857142857143">4</text><line stroke="#ddd" stroke-width="2" x1="70.0" x2="250.0" y1="264.2857142857143" y2="264.2857142857143" /><text fill="#ddd" font-family="Montserrat" font-weight="600" letter-spacing="1" text-anchor="start" x="70.0" y="210.85714285714286">5</text><line stroke="#ddd" stroke-width="2" x1="70.0" x2="250.0" y1="192.85714285714286" y2="192.85714285714286" /><text fill="#ddd" font-family="Montserrat" font-weight="600" letter-spacing="1" text-anchor="start" x="70.0" y="139.42857142857144">6</text><line stroke="#ddd" stroke-width="2" x1="70.0" x2="250.0" y1="121.42857142857143" y2="121.42857142857143" /><text fill="#ddd" font-family="Montserrat" font-weight="600" letter-spacing="1" text-anchor="start" x="70.0" y="68.0">7</text><line stroke="#ddd" stroke-width="2" x1="70.0" x2="250.0" y1="50.0" y2="50.0" /><text fill="#ddd" font-family="Montserrat" font-weight="600" letter-spacing="1" text-anchor="start" x="100.0" y="544.0">2017</text><text fill="#ddd" font-family="Montserrat" font-weight="600" letter-spacing="1" text-anchor="end" x="250.0" y="544.0">2022</text><line stroke="#fff" stroke-width="6" x1="100.0" x2="130.0" y1="123.34628300876852" y2="126.22981531002169" /><line stroke="#000" stroke-width="2" x1="100.0" x2="130.0" y1="123.34628300876852" y2="126.22981531002169" /><line stroke="#fff" stroke-width="6" x1="130.0" x2="160.0" y1="126.22981531002169" y2="122.5956240581963" /><line stroke="#000" stroke-width="2" x1="130.0" x2="160.0" y1="126.22981531002169" y2="122.5956240581963" /><line stroke="#fff" stroke-width="6" x1="160.0" x2="190.0" y1="122.5956240581963" y2="113.47204161795096" /><line stroke="#000" stroke-width="2" x1="160.0" x2="190.0" y1="122.5956240581963" y2="113.47204161795096" /><line stroke="#fff" stroke-width="6" x1="190.0" x2="220.0" y1="113.47204161795096" y2="104.80731070602708" /><line stroke="#000" stroke-width="2" x1="190.0" x2="220.0" y1="113.47204161795096" y2="104.80731070602708" /><line stroke="#fff" stroke-width="6" x1="220.0" x2="250.0" y1="104.80731070602708" y2="81.57890187931305" /><line stroke="#000" stroke-width="2" x1="220.0" x2="250.0" y1="104.80731070602708" y2="81.57890187931305" /><circle cx="100.0" cy="123.34628300876852" fill="#fff" r="5.5" /><circle cx="100.0" cy="123.34628300876852" fill="#000" r="3.5" /><circle cx="130.0" cy="126.22981531002169" fill="#fff" r="5.5" /><circle cx="130.0" cy="126.22981531002169" fill="#000" r="3.5" /><circle cx="160.0" cy="122.5956240581963" fill="#fff" r="5.5" /><circle cx="160.0" cy="122.5956240581963" fill="#000" r="3.5" /><circle cx="190.0" cy="113.47204161795096" fill="#fff" r="5.5" /><circle cx="190.0" cy="113.47204161795096" fill="#000" r="3.5" /><circle cx="220.0" cy="104.80731070602708" fill="#fff" r="5.5" /><circle cx="220.0" cy="104.80731070602708" fill="#000" r="3.5" /><circle cx="250.0" cy="81.57890187931305" fill="#fff" r="5.5" /><circle cx="250.0" cy="81.57890187931305" fill="#000" r="3.5" /><text fill="#000" font-family="Montserrat" font-weight="600" letter-spacing="1" text-anchor="start" x="265.0" y="87.57890187931305">ENGLISH</text><line stroke="#fff" stroke-width="6" x1="100.0" x2="130.0" y1="281.64119667803857" y2="269.67683784827614" /><line stroke="#000" stroke-width="2" x1="100.0" x2="130.0" y1="281.64119667803857" y2="269.67683784827614" /><line stroke="#fff" stroke-width="6" x1="130.0" x2="160.0" y1="269.67683784827614" y2="215.98880845156896" /><line stroke="#000" stroke-width="2" x1="130.0" x2="160.0" y1="269.67683784827614" y2="215.98880845156896" /><line stroke="#fff" stroke-width="6" x1="160.0" x2="190.0" y1="215.98880845156896" y2="219.80589837738754" /><line stroke="#000" stroke-width="2" x1="160.0" x2="190.0" y1="215.98880845156896" y2="219.80589837738754" /><line stroke="#fff" stroke-width="6" x1="190.0" x2="220.0" y1="219.80589837738754" y2="218.8647991811209" /><line stroke="#000" stroke-width="2" x1="190.0" x2="220.0" y1="219.80589837738754" y2="218.8647991811209" /><line stroke="#fff" stroke-width="6" x1="220.0" x2="250.0" y1="218.8647991811209" y2="200.68170446265188" /><line stroke="#000" stroke-width="2" x1="220.0" x2="250.0" y1="218.8647991811209" y2="200.68170446265188" /><circle cx="100.0" cy="281.64119667803857" fill="#fff" r="5.5" /><circle cx="100.0" cy="281.64119667803857" fill="#000" r="3.5" /><circle cx="130.0" cy="269.67683784827614" fill="#fff" r="5.5" /><circle cx="130.0" cy="269.67683784827614" fill="#000" r="3.5" /><circle cx="160.0" cy="215.98880845156896" fill="#fff" r="5.5" /><circle cx="160.0" cy="215.98880845156896" fill="#000" r="3.5" /><circle cx="190.0" cy="219.80589837738754" fill="#fff" r="5.5" /><circle cx="190.0" cy="219.80589837738754" fill="#000" r="3.5" /><circle cx="220.0" cy="218.8647991811209" fill="#fff" r="5.5" /><circle cx="220.0" cy="218.8647991811209" fill="#000" r="3.5" /><circle cx="250.0" cy="200.68170446265188" fill="#fff" r="5.5" /><circle cx="250.0" cy="200.68170446265188" fill="#000" r="3.5" /><text fill="#000" font-family="Montserrat" font-weight="600" letter-spacing="1" text-anchor="start" x="265.0" y="206.68170446265188">FRENCH</text><line stroke="#fff" stroke-width="6" x1="100.0" x2="130.0" y1="385.60088238548667" y2="368.4670812796736" /><line stroke="#000" stroke-width="2" x1="100.0" x2="130.0" y1="385.60088238548667" y2="368.4670812796736" /><line stroke="#fff" stroke-width="6" x1="130.0" x2="160.0" y1="368.4670812796736" y2="326.3341312701025" /><line stroke="#000" stroke-width="2" x1="130.0" x2="160.0" y1="368.4670812796736" y2="326.3341312701025" /><line stroke="#fff" stroke-width="6" x1="160.0" x2="190.0" y1="326.3341312701025" y2="313.515175908417" /><line stroke="#000" stroke-width="2" x1="160.0" x2="190.0" y1="326.3341312701025" y2="313.515175908417" /><line stroke="#fff" stroke-width="6" x1="190.0" x2="220.0" y1="313.515175908417" y2="318.35407638240514" /><line stroke="#000" stroke-width="2" x1="190.0" x2="220.0" y1="313.515175908417" y2="318.35407638240514" /><line stroke="#fff" stroke-width="6" x1="220.0" x2="250.0" y1="318.35407638240514" y2="313.9445348926679" /><line stroke="#000" stroke-width="2" x1="220.0" x2="250.0" y1="318.35407638240514" y2="313.9445348926679" /><circle cx="100.0" cy="385.60088238548667" fill="#fff" r="5.5" /><circle cx="100.0" cy="385.60088238548667" fill="#000" r="3.5" /><circle cx="130.0" cy="368.4670812796736" fill="#fff" r="5.5" /><circle cx="130.0" cy="368.4670812796736" fill="#000" r="3.5" /><circle cx="160.0" cy="326.3341312701025" fill="#fff" r="5.5" /><circle cx="160.0" cy="326.3341312701025" fill="#000" r="3.5" /><circle cx="190.0" cy="313.515175908417" fill="#fff" r="5.5" /><circle cx="190.0" cy="313.515175908417" fill="#000" r="3.5" /><circle cx="220.0" cy="318.35407638240514" fill="#fff" r="5.5" /><circle cx="220.0" cy="318.35407638240514" fill="#000" r="3.5" /><circle cx="250.0" cy="313.9445348926679" fill="#fff" r="5.5" /><circle cx="250.0" cy="313.9445348926679" fill="#000" r="3.5" /><text fill="#000" font-family="Montserrat" font-weight="600" letter-spacing="1" text-anchor="start" x="265.0" y="319.9445348926679">GERMAN</text><line stroke="#fff" stroke-width="6" x1="220.0" x2="250.0" y1="348.30361712083766" y2="346.40663805413203" /><line stroke="#000" stroke-width="2" x1="220.0" x2="250.0" y1="348.30361712083766" y2="346.40663805413203" /><circle cx="220.0" cy="348.30361712083766" fill="#fff" r="5.5" /><circle cx="220.0" cy="348.30361712083766" fill="#000" r="3.5" /><circle cx="250.0" cy="346.40663805413203" fill="#fff" r="5.5" /><circle cx="250.0" cy="346.40663805413203" fill="#000" r="3.5" /><text fill="#000" font-family="Montserrat" font-weight="600" letter-spacing="1" text-anchor="start" x="265.0" y="352.40663805413203">UKRAINIAN</text><line stroke="#fff" stroke-width="6" x1="100.0" x2="130.0" y1="469.2192235838251" y2="474.5819118047488" /><line stroke="#000" stroke-width="2" x1="100.0" x2="130.0" y1="469.2192235838251" y2="474.5819118047488" /><line stroke="#fff" stroke-width="6" x1="130.0" x2="160.0" y1="474.5819118047488" y2="429.0801542937112" /><line stroke="#000" stroke-width="2" x1="130.0" x2="160.0" y1="474.5819118047488" y2="429.0801542937112" /><line stroke="#fff" stroke-width="6" x1="160.0" x2="190.0" y1="429.0801542937112" y2="419.18568599826745" /><line stroke="#000" stroke-width="2" x1="160.0" x2="190.0" y1="429.0801542937112" y2="419.18568599826745" /><line stroke="#fff" stroke-width="6" x1="190.0" x2="220.0" y1="419.18568599826745" y2="413.92832242398185" /><line stroke="#000" stroke-width="2" x1="190.0" x2="220.0" y1="419.18568599826745" y2="413.92832242398185" /><line stroke="#fff" stroke-width="6" x1="220.0" x2="250.0" y1="413.92832242398185" y2="395.92544927531577" /><line stroke="#000" stroke-width="2" x1="220.0" x2="250.0" y1="413.92832242398185" y2="395.92544927531577" /><circle cx="100.0" cy="469.2192235838251" fill="#fff" r="5.5" /><circle cx="100.0" cy="469.2192235838251" fill="#000" r="3.5" /><circle cx="130.0" cy="474.5819118047488" fill="#fff" r="5.5" /><circle cx="130.0" cy="474.5819118047488" fill="#000" r="3.5" /><circle cx="160.0" cy="429.0801542937112" fill="#fff" r="5.5" /><circle cx="160.0" cy="429.0801542937112" fill="#000" r="3.5" /><circle cx="190.0" cy="419.18568599826745" fill="#fff" r="5.5" /><circle cx="190.0" cy="419.18568599826745" fill="#000" r="3.5" /><circle cx="220.0" cy="413.92832242398185" fill="#fff" r="5.5" /><circle cx="220.0" cy="413.92832242398185" fill="#000" r="3.5" /><circle cx="250.0" cy="395.92544927531577" fill="#fff" r="5.5" /><circle cx="250.0" cy="395.92544927531577" fill="#000" r="3.5" /><text fill="#000" font-family="Montserrat" font-weight="600" letter-spacing="1" text-anchor="start" x="265.0" y="401.92544927531577">SPANISH</text><line stroke="#fff" stroke-width="6" x1="129.97946611909651" x2="159.97946611909651" y1="492.9223352804283" y2="477.0522416604535" /><line stroke="#000" stroke-width="2" x1="129.97946611909651" x2="159.97946611909651" y1="492.9223352804283" y2="477.0522416604535" /><line stroke="#fff" stroke-width="6" x1="159.97946611909651" x2="189.97946611909651" y1="477.0522416604535" y2="468.47458219674706" /><line stroke="#000" stroke-width="2" x1="159.97946611909651" x2="189.97946611909651" y1="477.0522416604535" y2="468.47458219674706" /><line stroke="#fff" stroke-width="6" x1="189.97946611909651" x2="219.97946611909651" y1="468.47458219674706" y2="446.7802624528409" /><line stroke="#000" stroke-width="2" x1="189.97946611909651" x2="219.97946611909651" y1="468.47458219674706" y2="446.7802624528409" /><line stroke="#fff" stroke-width="6" x1="219.97946611909651" x2="249.97946611909651" y1="446.7802624528409" y2="409.98757003522775" /><line stroke="#000" stroke-width="2" x1="219.97946611909651" x2="249.97946611909651" y1="446.7802624528409" y2="409.98757003522775" /><circle cx="129.97946611909651" cy="492.9223352804283" fill="#fff" r="5.5" /><circle cx="129.97946611909651" cy="492.9223352804283" fill="#000" r="3.5" /><circle cx="159.97946611909651" cy="477.0522416604535" fill="#fff" r="5.5" /><circle cx="159.97946611909651" cy="477.0522416604535" fill="#000" r="3.5" /><circle cx="189.97946611909651" cy="468.47458219674706" fill="#fff" r="5.5" /><circle cx="189.97946611909651" cy="468.47458219674706" fill="#000" r="3.5" /><circle cx="219.97946611909651" cy="446.7802624528409" fill="#fff" r="5.5" /><circle cx="219.97946611909651" cy="446.7802624528409" fill="#000" r="3.5" /><circle cx="249.97946611909651" cy="409.98757003522775" fill="#fff" r="5.5" /><circle cx="249.97946611909651" cy="409.98757003522775" fill="#000" r="3.5" /><text fill="#000" font-family="Montserrat" font-weight="600" letter-spacing="1" text-anchor="start" x="264.9794661190965" y="421.92544927531577">ESPERANTO</text></svg>