<?xml version="1.0" encoding="UTF-8" standalone="no"?>
<!-- Created with Inkscape (http://www.inkscape.org/) -->
<svg
    id="emmio_header_white"
    width="115.17364mm"
    height="50.642742mm"
    version="1.1"
    xmlns="http://www.w3.org/2000/svg"
    xmlns:svg="http://www.w3.org/2000/svg">
    <path
        id="emmio_logo_white"
        style="opacity: 1; fill: #FFFFFF; stroke: none;"
        d="m 348.21484,12.519531 c -6.50028,0.126738 -12.91407,2.24944 -14.28906,7.38086 -0.57259,2.137173 -0.24919,1.160201 -1.1582,4.552734 -2.01579,7.52288 23.63747,10.941467 27.29101,2.492187 1.65579,-3.829119 1.84165,-3.847828 3.13477,-7.166015 1.88112,-4.28592 -6.621,-7.422714 -14.97852,-7.259766 z M 55.912109,38.6875 c -15.876053,0 -33.687283,10.503484 -41.033203,37.900391 -8.4758397,31.611089 6.915266,49.900389 25.632813,49.900389 17.349305,0 32.983792,-11.18183 44.90039,-29.408202 -3.667018,11.805922 -6.719017,21.362692 -7.580078,24.576172 -1.74426,6.50996 14.697412,10.81957 22.835939,-0.52148 8.13853,-11.34105 18.38162,-23.684291 25.68359,-35.835942 -4.9538,16.216622 -9.47509,29.967902 -10.61718,34.230472 -2.73846,10.21994 16.76543,11.20726 21.86328,4.375 5.09785,-6.83226 20.82838,-29.351727 28.77734,-43.242191 -3.22936,14.298974 -5.1282,28.571371 -6.73438,45.107421 -1.23317,12.69611 18.81628,9.59594 19.66407,3.23242 2.46976,-18.53846 16.54307,-67.199942 21.54883,-78.386716 3.69493,-8.257493 -21.34034,-12.07651 -25.85938,0.539063 -0.10576,0.295237 -0.20044,0.582854 -0.30469,0.876953 -7.96328,16.938013 -18.82841,33.484368 -28.27734,45.480469 6.7878,-19.611173 15.09959,-43.433749 16.98828,-50.482422 1.78,-6.642862 -22.42348,-13.015541 -28.62109,9.173828 L 134.75,55.966797 c -7.584,16.27913 -15.95305,29.26135 -24.22461,39.359375 6.34555,-18.548424 13.58923,-41.3328 15.44531,-48.259766 1.52854,-5.704533 -22.81076,-12.103442 -28.238278,8.152344 -0.210339,0.785002 -0.452839,1.621303 -0.669922,2.417969 l -0.03711,0.0039 C 82.831505,110.57753 34.961035,129.50941 39.583984,88.179688 106.67348,71.463139 85.849372,38.6875 55.912109,38.6875 Z m 282.662111,1.298828 c -5.72258,0.102307 -11.64992,2.355874 -13.62695,7.875 -9.19691,25.674453 -13.93364,48.294971 -17.04297,73.675782 -0.87367,7.13199 14.91457,11.7691 17.87695,7.19531 6.28703,-9.70689 14.78762,-21.67859 21.625,-33.394529 -0.0211,16.550219 11.91584,31.888669 29.56445,31.888669 15.64992,0 35.53004,-16.20973 43.875,-47.353513 4.75744,-17.7552 0.25231,-29.310547 -11.40039,-29.310547 -27.01984,0 -32.16028,29.409969 -15.12695,32.554688 -5.76508,19.549152 -10.85959,36.441402 -18.18164,36.441402 -10.76843,0 -5.18734,-23.044814 -1.29102,-37.585934 3.89632,-14.54112 9.66016,-31.736328 19.54688,-31.736328 13.43658,0 8.8044,-7.671875 -5.6211,-7.671875 -15.27973,0 -26.4505,9.404442 -34.23632,26.771485 h -0.004 c -0.01,0.02669 -0.0213,0.05339 -0.0312,0.08008 -0.77391,1.731051 -1.51316,3.542197 -2.2207,5.429687 -6.07711,13.876942 -15.11709,27.103975 -22.91797,34.847655 5.03458,-22.900965 13.05133,-43.730154 21.44726,-61.798827 2.14434,-4.61478 -4.87677,-8.03974 -12.23437,-7.908203 z m -72.1836,0.34375 c -6.714,-0.04732 -14.56285,2.533675 -16.40429,8.808594 -8.47178,17.947955 -20.06524,35.708354 -29.48242,47.957031 4.59063,-13.973913 11.15712,-32.131164 18.60351,-51.105469 2.15755,-5.4976 -23.07586,-7.595795 -26.75586,3.707032 -8.37109,25.711253 -16.08851,46.146056 -20.16992,71.285154 -0.97814,6.02475 14.99318,10.8309 20.60938,2.35156 8.89343,-13.42729 20.59028,-30.216243 28.80859,-45.486324 -5.79638,18.837847 -11.36412,36.203164 -12.72852,40.603514 -2.46062,7.9358 17.36801,11.23263 20.96287,6.02344 10.61586,-15.38308 22.60026,-32.582357 30.80469,-48.263672 -4.24292,18.59802 -6.76913,38.092412 -8.80469,56.697262 -0.82911,7.57803 18.81631,7.84583 19.66407,1.48242 2.46978,-18.53846 17.48838,-73.666844 22.49414,-84.853511 3.69493,-8.257493 -21.34229,-12.07651 -25.86133,0.539063 -0.0349,0.09748 -0.0668,0.197328 -0.10156,0.294922 -7.81624,16.528188 -18.59685,32.226493 -27.74024,43.921875 6.64913,-19.197144 14.42992,-41.556222 16.24805,-48.341797 0.92415,-3.44895 -4.15512,-5.578868 -10.14649,-5.621094 z M 67.011719,50.6875 C 80.714499,50.01824 83.062102,70.417254 40.447266,82.640625 45.132477,58.696796 58.937053,51.0819 67.011719,50.6875 Z M 394.30859,63.154297 c 2.99415,0 4.69741,2.781843 1.15039,15.958984 -10.14495,-2.239352 -6.38436,-15.958984 -1.15039,-15.958984 z" />
</svg>
