<?xml version="1.0" encoding="UTF-8" standalone="no"?>
<!-- Created with Inkscape (http://www.inkscape.org/) -->

<svg
   width="115.17364mm"
   height="50.642742mm"
   viewBox="0 0 408.09557 179.44279"
   id="svg4281"
   version="1.1"
   inkscape:version="1.1.1 (c3084ef, 2021-09-22)"
   sodipodi:docname="header_black.svg"
   xmlns:inkscape="http://www.inkscape.org/namespaces/inkscape"
   xmlns:sodipodi="http://sodipodi.sourceforge.net/DTD/sodipodi-0.dtd"
   xmlns="http://www.w3.org/2000/svg"
   xmlns:svg="http://www.w3.org/2000/svg"
   xmlns:rdf="http://www.w3.org/1999/02/22-rdf-syntax-ns#"
   xmlns:cc="http://creativecommons.org/ns#"
   xmlns:dc="http://purl.org/dc/elements/1.1/">
  <defs
     id="defs4283" />
  <sodipodi:namedview
     id="base"
     pagecolor="#ffffff"
     bordercolor="#666666"
     borderopacity="1.0"
     inkscape:pageopacity="0.0"
     inkscape:pageshadow="2"
     inkscape:zoom="1.2596268"
     inkscape:cx="210.77672"
     inkscape:cy="107.96849"
     inkscape:document-units="px"
     inkscape:current-layer="layer1"
     showgrid="false"
     fit-margin-top="0"
     fit-margin-left="0"
     fit-margin-right="0"
     fit-margin-bottom="0"
     inkscape:window-width="1440"
     inkscape:window-height="847"
     inkscape:window-x="0"
     inkscape:window-y="25"
     inkscape:window-maximized="0"
     inkscape:pagecheckerboard="0"
     inkscape:snap-page="true" />
  <metadata
     id="metadata4286">
    <rdf:RDF>
      <cc:Work
         rdf:about="">
        <dc:format>image/svg+xml</dc:format>
        <dc:type
           rdf:resource="http://purl.org/dc/dcmitype/StillImage" />
      </cc:Work>
    </rdf:RDF>
  </metadata>
  <g
     inkscape:label="Layer 1"
     inkscape:groupmode="layer"
     id="layer1"
     transform="translate(-140.64864,-386.5896)">
    <g
       id="g939"
       style="fill:#000000">
      <path
         style="fill:#000000;stroke:none"
         d="m 175.37817,469.85937 c 65.8328,-15.4755 46.1106,-47 17.6875,-47 -14.8838,0 -31.582,9.8467 -38.4688,35.5313 -7.9461,29.6354 6.4836,46.78121 24.0313,46.78121 26.1042,0 48.0688,-26.99551 58.1262,-64.97321 l -5.1441,0.4286 c -13.5914,50.6899 -60.1286,68.13181 -53.5134,26.0759 3.8595,-24.5365 17.5153,-32.2099 25.375,-32.5938 13.0996,-0.6398 15.1617,19.2634 -27.2857,30.6295 z"
         id="path4227"
         inkscape:connector-curvature="0"
         sodipodi:nodetypes="csssccsscc" />
      <path
         sodipodi:nodetypes="ccccc"
         inkscape:connector-curvature="0"
         id="path4229"
         d="m 233.53347,501.99188 c 13.5251,-16.54131 28.0292,-36.45221 34.6689,-53.37231 l -1.2256,-9.5605 c -10.0048,21.4754 -21.4658,36.8579 -32.0808,47.1491 z"
         style="fill:#000000;stroke:none" />
      <path
         inkscape:connector-curvature="0"
         id="path4231"
         d="m 232.27327,438.35747 c -6.6167,24.694 -16.9774,56.016 -18.6572,62.28501 -1.6592,6.1925 15.1617,10.3751 21.7056,-0.9594 3.7854,-6.55651 20.5438,-58.21631 23.4248,-68.96831 1.433,-5.348 -21.3849,-11.3471 -26.4732,7.6427 z"
         style="fill:#000000;stroke:none"
         sodipodi:nodetypes="sssss" />
      <path
         inkscape:connector-curvature="0"
         id="path4233"
         d="m 304.70587,434.54617 c -8.6221,24.0699 -11.8786,44.0491 -14.3947,69.95311 -1.1561,11.9026 17.6405,8.9962 18.4353,3.0304 2.3154,-17.37981 15.5102,-63.00101 20.2031,-73.48861 3.464,-7.7414 -20.0071,-11.322 -24.2437,0.5051 z"
         style="fill:#000000;stroke:none"
         sodipodi:nodetypes="sssss" />
      <path
         style="fill:#000000;stroke:none"
         d="m 269.64637,502.74948 c 12.6413,-17.67771 27.25,-37.88071 33.8897,-54.80081 l 1.15,-13.132 c -10.0049,21.4754 -25.0825,42.363 -35.1924,53.033 z"
         id="path4235"
         inkscape:connector-curvature="0"
         sodipodi:nodetypes="ccccc" />
      <path
         style="fill:#000000;stroke:none"
         d="m 445.74667,507.74068 c 11.1283,-15.84731 27.0543,-40.27631 32.1029,-55.27401 l -4.8284,-0.8755 c -6.1348,16.412 -17.489,32.8493 -26.2257,40.2843 z"
         id="path4237"
         inkscape:connector-curvature="0"
         sodipodi:nodetypes="ccccc" />
      <path
         sodipodi:nodetypes="cssssc"
         style="fill:#000000;stroke:none"
         d="m 445.28757,431.45977 c -8.6221,24.0698 -13.0637,45.2762 -15.9787,69.07071 -0.869,7.0939 16.2351,11.7876 17.0628,5.8263 3.915,-28.19821 13.2644,-53.57141 23.1595,-74.86641 3.5739,-7.6913 -20.0071,-11.8577 -24.2436,-0.031 z"
         id="path4239"
         inkscape:connector-curvature="0" />
      <path
         style="fill:#000000;stroke:none"
         d="m 510.56567,463.68977 c -5.507,18.6799 -10.3202,34.98651 -17.2889,34.98651 -10.0954,0 -4.8639,-21.60421 -1.2111,-35.23651 3.6528,-13.6323 9.0571,-29.7545 18.3259,-29.7545 12.5968,0 8.2539,-7.1919 -5.27,-7.1919 -18.5097,0 -30.5906,14.7111 -37.6995,41.2419 -4.8868,18.2379 7.1752,38.12851 26.636,38.12851 14.6718,0 33.3092,-15.19551 41.1326,-44.39281 4.4601,-16.6455 0.2369,-27.4796 -10.6875,-27.4796 -26.761,0 -30.6436,30.7905 -11.2915,30.7905 6.2984,0 8.101,1.4271 14.9814,-0.135 9.245,-2.0989 8.0676,-13.6406 -2.1133,-6.5726 -5.9642,4.1406 -0.5384,2.9801 -11.848,2.9801 -12.9787,0 -9.2616,-15.2574 -3.919,-15.2574 3.0174,0 4.6442,2.9974 0.2529,17.8928 z"
         id="path4241"
         inkscape:connector-curvature="0"
         sodipodi:nodetypes="ssssssscsssssss" />
      <path
         sodipodi:nodetypes="sssss"
         style="fill:#000000;stroke:none"
         d="m 266.91437,439.57687 c -6.6168,24.6939 -16.0846,52.8017 -17.7643,59.07071 -2.5673,9.5812 18.7298,10.4811 20.4555,4.0406 1.9595,-7.3128 21.35,-61.25731 24.231,-72.00931 1.6769,-6.2581 -21.2503,-12.2697 -26.9222,8.898 z"
         id="path4243"
         inkscape:connector-curvature="0" />
      <path
         style="fill:#000000;stroke:none"
         d="m 453.70487,405.24647 c -0.5368,2.0036 -0.2345,1.088 -1.0867,4.2685 -1.8898,7.0527 22.1609,10.2572 25.5861,2.336 1.5523,-3.5898 1.7252,-3.6073 2.9375,-6.7181 3.1352,-7.1432 -24.4905,-10.8823 -27.4369,0.1136 z"
         id="path4245"
         inkscape:connector-curvature="0"
         sodipodi:nodetypes="ssscs" />
      <path
         style="fill:#000000;stroke:none"
         d="m 340.01527,502.39488 c 12.1974,-17.11131 27.9515,-41.56941 34.5913,-58.48951 l 0.8163,-12.1065 c -10.0048,21.4755 -24.939,42.8312 -34.4176,53.6274 z"
         id="path4247"
         inkscape:connector-curvature="0"
         sodipodi:nodetypes="ccccc" />
      <path
         sodipodi:nodetypes="sssss"
         style="fill:#000000;stroke:none"
         d="m 339.72827,433.18047 c -7.8479,24.1043 -15.0834,43.2628 -18.9097,66.83071 -1.0274,6.328 18.4477,11.5766 20.5692,-1.3382 1.5125,-9.20821 11.3261,-38.13961 23.4247,-68.96831 2.0227,-5.154 -21.6342,-7.1206 -25.0842,3.4758 z"
         id="path4249"
         inkscape:connector-curvature="0" />
      <path
         sodipodi:nodetypes="sssss"
         style="fill:#000000;stroke:none"
         d="m 410.77187,433.53607 c -8.6221,24.0699 -12.4479,51.7839 -15.2785,77.65551 -0.7773,7.1044 17.6405,7.3546 18.4352,1.3889 2.3155,-17.3798 16.3941,-69.06201 21.087,-79.54951 3.464,-7.7414 -20.0071,-11.322 -24.2437,0.5051 z"
         id="path4251"
         inkscape:connector-curvature="0" />
      <path
         sodipodi:nodetypes="ccccc"
         inkscape:connector-curvature="0"
         id="path4253"
         d="m 374.86807,503.28508 c 12.4653,-17.73621 27.6658,-39.99031 34.3056,-56.91031 l 1.8877,-13.3565 c -10.0048,21.4755 -25.5053,41.5811 -34.9839,52.3774 z"
         style="fill:#000000;stroke:none" />
      <path
         inkscape:connector-curvature="0"
         id="path4255"
         d="m 374.94467,432.85237 c -6.6167,24.694 -18.0489,58.516 -19.7286,64.78501 -2.5673,9.5813 18.7298,10.4811 20.4556,4.0406 1.9594,-7.31281 21.35,-61.25721 24.2309,-72.00921 1.8483,-6.8979 -21.9169,-8.1657 -24.9579,3.1836 z"
         style="fill:#000000;stroke:none"
         sodipodi:nodetypes="sssss" />
    </g>
  </g>
</svg>
